<svg xmlns="http://www.w3.org/2000/svg" viewBox="0 0 64 64">
  <rect width="64" height="64" rx="14" fill="#fbfaf7"/>
  <path d="M8 25c12-1 22 5 29 18-11-8-20-11-26-9Z" fill="#021c51"/>
  <path d="M56 25c-12-1-22 5-29 18 11-8 20-11 26-9Z" fill="#021c51"/>
  <path d="M13 18c9 4 15 11 19 21-8-10-15-16-19-18Z" fill="#c89630"/>
  <path d="M51 18c-9 4-15 11-19 21 8-10 15-16 19-18Z" fill="#c89630"/>
  <path d="M24 31c3 2 5 5 7 11h2c2-6 4-9 7-11l-6 1-2 6-2-6Z" fill="#c89630"/>
  <circle cx="32" cy="16" r="7" fill="#c89630"/>
  <circle cx="32" cy="28" r="3.5" fill="#c89630"/>
  <path d="M7 48h50" stroke="#c89630" stroke-width="2.5" stroke-linecap="round"/>
</svg>
